<svg id="Camada_1" data-name="Camada 1" xmlns="http://www.w3.org/2000/svg" viewBox="0 0 480.77 101.54"><defs><style>.cls-1,.cls-3{fill:#fff;}.cls-1,.cls-2{fill-rule:evenodd;}.cls-2,.cls-4{fill:#d2aa68;}</style></defs><path class="cls-1" d="M109.17,77.66,94.4,86.19a.42.42,0,0,1-.43,0l-34.63-20a.4.4,0,0,1-.22-.37V45.32a.43.43,0,0,1,.22-.38.42.42,0,0,1,.43,0l8.37,4.83a.43.43,0,0,1,.22.38V60.49a.4.4,0,0,0,.21.37L94,75.52a.42.42,0,0,0,.43,0l5.54-3.19a.44.44,0,0,0,.21-.37v-9a.44.44,0,0,0-.21-.38L59.34,39.09a.41.41,0,0,1-.22-.37V25.83a.43.43,0,0,1,.22-.38l8.36-4.83a.43.43,0,0,1,.44,0,.43.43,0,0,1,.22.38V33.25a.42.42,0,0,0,.21.38l40.6,23.44a.41.41,0,0,1,.22.37V77.29a.41.41,0,0,1-.22.37"/><path class="cls-1" d="M94.4,5.46l34.64,20a.44.44,0,0,1,.21.38v40a.41.41,0,0,1-.21.37L120.67,71a.43.43,0,0,1-.44,0,.42.42,0,0,1-.21-.38V31.16a.41.41,0,0,0-.22-.37L110,25.15a.42.42,0,0,0-.43,0,.43.43,0,0,0-.22.38v25a.44.44,0,0,1-.65.37L100.37,46a.41.41,0,0,1-.22-.37v-26a.42.42,0,0,0-.21-.37l-5.54-3.2a.42.42,0,0,0-.43,0l-5.18,3a.43.43,0,0,0-.22.38v19a.4.4,0,0,1-.22.37.42.42,0,0,1-.43,0l-8.37-5a.42.42,0,0,1-.21-.38V14.16a.44.44,0,0,1,.21-.38L94,5.46a.42.42,0,0,1,.43,0"/><path class="cls-2" d="M159.23,55.67a78.39,78.39,0,0,1-8.53,5.9.37.37,0,0,1-.15,0H138.09a.29.29,0,0,0-.29.29v8.94a.29.29,0,0,1-.14.25l-43.33,25a.26.26,0,0,1-.29,0l-43.33-25a.29.29,0,0,1-.14-.25V61.9a.29.29,0,0,0-.29-.29H37.82a.37.37,0,0,1-.15,0,79.38,79.38,0,0,1-8.53-5.9.3.3,0,0,1-.1-.33.31.31,0,0,1,.28-.19h21a.29.29,0,0,0,.29-.29V51.38a.29.29,0,0,0-.29-.29H24.19a.28.28,0,0,1-.15,0,78,78,0,0,1-8.53-5.9.28.28,0,0,1-.09-.32.29.29,0,0,1,.27-.2H50.28a.29.29,0,0,0,.29-.29V40.77a.29.29,0,0,0-.29-.29h-40a.3.3,0,0,1-.2-.08c-1.94-1.86-3.8-3.82-5.58-5.9a.3.3,0,0,1,0-.31A.28.28,0,0,1,4.71,34h47a.29.29,0,0,1,.29.29v.89a.29.29,0,0,1-.29.29H8a.29.29,0,0,0-.26.18.28.28,0,0,0,0,.31c.94,1,1.9,2,2.88,2.94a.29.29,0,0,0,.21.09H51.75a.28.28,0,0,1,.29.28v6.53a.29.29,0,0,1-.29.29H20.11a.28.28,0,0,0-.28.2.28.28,0,0,0,.11.32q2.2,1.56,4.51,2.95a.26.26,0,0,0,.15,0H51.75a.29.29,0,0,1,.29.29v6.42a.29.29,0,0,1-.29.29h-18a.29.29,0,0,0-.28.2.28.28,0,0,0,.11.33q2.2,1.55,4.51,2.94a.24.24,0,0,0,.15,0H51.75a.29.29,0,0,1,.29.29V70a.27.27,0,0,0,.15.25L94,94.4a.26.26,0,0,0,.29,0l41.85-24.16a.27.27,0,0,0,.15-.25V60.42a.29.29,0,0,1,.29-.29h13.52a.24.24,0,0,0,.15,0q2.31-1.4,4.51-2.94a.28.28,0,0,0,.11-.33.29.29,0,0,0-.27-.2h-18a.29.29,0,0,1-.29-.29V49.91a.29.29,0,0,1,.29-.29h27.15a.26.26,0,0,0,.15,0q2.31-1.39,4.51-2.95a.28.28,0,0,0,.11-.32.28.28,0,0,0-.28-.2H136.62a.29.29,0,0,1-.29-.29V39.29a.28.28,0,0,1,.29-.28h40.89a.28.28,0,0,0,.2-.09c1-1,1.94-1.94,2.88-2.94a.28.28,0,0,0,0-.31.29.29,0,0,0-.26-.18H136.62a.29.29,0,0,1-.29-.29v-.89a.29.29,0,0,1,.29-.29h47a.28.28,0,0,1,.26.17.28.28,0,0,1-.05.31c-1.78,2.08-3.64,4-5.58,5.9a.3.3,0,0,1-.2.08h-40a.29.29,0,0,0-.29.29v3.57a.29.29,0,0,0,.29.29h34.59a.28.28,0,0,1,.27.2.27.27,0,0,1-.09.32,78,78,0,0,1-8.53,5.9.28.28,0,0,1-.15,0H138.09a.29.29,0,0,0-.29.29v3.48a.29.29,0,0,0,.29.29h21a.3.3,0,0,1,.28.19.3.3,0,0,1-.1.33"/><path class="cls-3" d="M407.11,80.67v-1.6a.2.2,0,0,0-.19-.19h-7.21a.2.2,0,0,0-.2.19v9.59a.19.19,0,0,0,.2.19h1.81a.19.19,0,0,0,.19-.19V85.18a.19.19,0,0,1,.19-.19h4.37a.19.19,0,0,0,.2-.19V83.2a.2.2,0,0,0-.2-.19H401.9a.18.18,0,0,1-.19-.19V81.05a.19.19,0,0,1,.19-.19h5a.2.2,0,0,0,.19-.19m4,8V79.07a.19.19,0,0,0-.19-.19h-1.81a.2.2,0,0,0-.19.19v9.59a.19.19,0,0,0,.19.19H411A.18.18,0,0,0,411.15,88.66Zm11.36,0V79.07a.2.2,0,0,0-.19-.19h-1.78a.2.2,0,0,0-.2.19v5.38a.18.18,0,0,1-.13.18.19.19,0,0,1-.21-.06L415.73,79a.19.19,0,0,0-.16-.08h-1.73a.19.19,0,0,0-.19.19v9.59a.18.18,0,0,0,.19.19h1.78a.18.18,0,0,0,.19-.19V83.08a.19.19,0,0,1,.13-.18.19.19,0,0,1,.22.07l4.42,5.81a.2.2,0,0,0,.16.07h1.58A.19.19,0,0,0,422.51,88.66Zm12-.07-4.11-9.66a.17.17,0,0,0-.17-.12h-1.77a.18.18,0,0,0-.18.12l-4.11,9.66a.17.17,0,0,0,0,.18.18.18,0,0,0,.16.08h1.81a.18.18,0,0,0,.18-.12l.82-2a.17.17,0,0,1,.17-.12h4a.18.18,0,0,1,.18.12l.82,2a.17.17,0,0,0,.17.12h1.88a.21.21,0,0,0,.16-.08A.19.19,0,0,0,434.5,88.59Zm-4.16-3.91h-2.07a.17.17,0,0,1-.16-.09.17.17,0,0,1,0-.18l1-2.53a.18.18,0,0,1,.17-.12.2.2,0,0,1,.18.12l1,2.53a.19.19,0,0,1,0,.18A.18.18,0,0,1,430.34,84.68Zm14.68,4V79.07a.2.2,0,0,0-.19-.19H443a.2.2,0,0,0-.19.19v5.38a.18.18,0,0,1-.13.18.19.19,0,0,1-.21-.06L438.24,79a.19.19,0,0,0-.16-.08h-1.73a.19.19,0,0,0-.19.19v9.59a.18.18,0,0,0,.19.19h1.78a.18.18,0,0,0,.19-.19V83.08a.19.19,0,0,1,.13-.18.19.19,0,0,1,.22.07l4.42,5.81a.19.19,0,0,0,.16.07h1.58A.19.19,0,0,0,445,88.66Zm11-1.55L454.91,86a.21.21,0,0,0-.27,0,5.26,5.26,0,0,1-1,.74,3,3,0,0,1-1.44.31,2.71,2.71,0,0,1-1.18-.25,2.56,2.56,0,0,1-.91-.68,3.07,3.07,0,0,1-.59-1,3.29,3.29,0,0,1-.22-1.21v0a3.25,3.25,0,0,1,.22-1.21,3.13,3.13,0,0,1,.6-1A2.91,2.91,0,0,1,451,81a2.85,2.85,0,0,1,1.17-.24,3,3,0,0,1,1.36.3,5.42,5.42,0,0,1,1,.7.19.19,0,0,0,.27,0L456,80.39a.2.2,0,0,0,0-.27,4.92,4.92,0,0,0-.61-.5,4.31,4.31,0,0,0-.87-.48,5,5,0,0,0-1.05-.32,7.07,7.07,0,0,0-1.27-.11,5.19,5.19,0,0,0-2.11.41,5,5,0,0,0-1.64,1.11,5.3,5.3,0,0,0-1.07,1.63,5.36,5.36,0,0,0-.38,2v0a5.33,5.33,0,0,0,.38,2,5.07,5.07,0,0,0,1.07,1.63,4.81,4.81,0,0,0,1.63,1.09,5,5,0,0,0,2,.4,6.43,6.43,0,0,0,1.31-.12,5.06,5.06,0,0,0,1.08-.35,4.58,4.58,0,0,0,.9-.57,6.26,6.26,0,0,0,.67-.6A.18.18,0,0,0,456,87.11Zm4.18,1.55V79.07a.2.2,0,0,0-.19-.19h-1.81a.2.2,0,0,0-.2.19v9.59a.19.19,0,0,0,.2.19H460A.19.19,0,0,0,460.22,88.66Zm12.09-.07-4.11-9.66a.17.17,0,0,0-.17-.12h-1.77a.18.18,0,0,0-.18.12L462,88.59a.17.17,0,0,0,0,.18.18.18,0,0,0,.16.08H464a.18.18,0,0,0,.18-.12l.82-2a.18.18,0,0,1,.17-.12h4a.18.18,0,0,1,.18.12l.82,2a.17.17,0,0,0,.17.12h1.88a.21.21,0,0,0,.16-.08A.19.19,0,0,0,472.31,88.59Zm-4.16-3.91h-2.07a.17.17,0,0,1-.16-.09.17.17,0,0,1,0-.18l1-2.53a.18.18,0,0,1,.17-.12.2.2,0,0,1,.18.12l1,2.53a.17.17,0,0,1,0,.18A.17.17,0,0,1,468.15,84.68Z"/><path class="cls-3" d="M345.2,80.71V79.07a.19.19,0,0,0-.19-.19h-7.88a.2.2,0,0,0-.19.19v1.64a.19.19,0,0,0,.19.19h2.65a.2.2,0,0,1,.2.2v7.56a.18.18,0,0,0,.19.19H342a.19.19,0,0,0,.19-.19V81.1a.2.2,0,0,1,.19-.2H345a.18.18,0,0,0,.19-.19m10.1,7.84-2.1-3.06a.18.18,0,0,1,0-.16.19.19,0,0,1,.1-.13,3.24,3.24,0,0,0,1.33-1,3.08,3.08,0,0,0,.6-2v0a3.06,3.06,0,0,0-1-2.42,4.08,4.08,0,0,0-2.78-.87h-4.36a.19.19,0,0,0-.19.19v9.59a.18.18,0,0,0,.19.19h1.81a.19.19,0,0,0,.19-.19V85.85a.2.2,0,0,1,.19-.19h1.43a.18.18,0,0,1,.16.09l2,3a.21.21,0,0,0,.16.08h2.1a.19.19,0,0,0,.17-.1A.2.2,0,0,0,355.3,88.55ZM353,82.31a1.31,1.31,0,0,1-.43,1,1.82,1.82,0,0,1-1.25.38h-2a.19.19,0,0,1-.19-.19V81.05a.2.2,0,0,1,.19-.19h2a2,2,0,0,1,1.27.36,1.27,1.27,0,0,1,.45,1.07Zm14.36,1.56v0a5.13,5.13,0,0,0-.39-2,4.81,4.81,0,0,0-1.09-1.63,5.35,5.35,0,0,0-1.68-1.09,5.24,5.24,0,0,0-2.12-.41,5.32,5.32,0,0,0-2.13.41,5.13,5.13,0,0,0-1.68,1.11,5,5,0,0,0-1.51,3.64v0a5.19,5.19,0,0,0,.4,2,4.87,4.87,0,0,0,1.09,1.62,5.27,5.27,0,0,0,1.68,1.1A5.41,5.41,0,0,0,362,89a5.5,5.5,0,0,0,2.13-.4,5.07,5.07,0,0,0,2.78-2.75A5,5,0,0,0,367.34,83.87Zm-2.29,0a3.25,3.25,0,0,1-.22,1.21,3.35,3.35,0,0,1-.61,1,2.82,2.82,0,0,1-1,.67,3,3,0,0,1-1.21.24,2.86,2.86,0,0,1-1.22-.25,2.81,2.81,0,0,1-.95-.68,3,3,0,0,1-.63-1,3.29,3.29,0,0,1-.22-1.21v0a3.25,3.25,0,0,1,.22-1.21,3.35,3.35,0,0,1,.61-1,3,3,0,0,1,3.37-.66,3,3,0,0,1,1,.68,3,3,0,0,1,.63,1,3.25,3.25,0,0,1,.22,1.21Zm12.88,3.22L376.79,86a.2.2,0,0,0-.26,0,5.91,5.91,0,0,1-1,.74A3.08,3.08,0,0,1,374,87a2.71,2.71,0,0,1-1.18-.25,2.65,2.65,0,0,1-.91-.68,3.07,3.07,0,0,1-.59-1,3.5,3.5,0,0,1-.21-1.21v0a3.46,3.46,0,0,1,.21-1.21,3.13,3.13,0,0,1,.6-1,3,3,0,0,1,.92-.67,2.77,2.77,0,0,1,1.16-.24,3,3,0,0,1,1.36.3,5.81,5.81,0,0,1,1.05.7.19.19,0,0,0,.27,0l1.15-1.32a.2.2,0,0,0,0-.27,5.68,5.68,0,0,0-.6-.5,4.59,4.59,0,0,0-.87-.48,5.37,5.37,0,0,0-1.05-.32,7.18,7.18,0,0,0-1.28-.11,5.11,5.11,0,0,0-2.1.41,4.85,4.85,0,0,0-1.64,1.11,5.13,5.13,0,0,0-1.07,1.63,5.18,5.18,0,0,0-.39,2v0a5.14,5.14,0,0,0,.39,2,4.91,4.91,0,0,0,1.07,1.63,4.68,4.68,0,0,0,1.62,1.09,5.12,5.12,0,0,0,2,.4,6.57,6.57,0,0,0,1.31-.12,4.8,4.8,0,0,0,1.07-.35,5,5,0,0,0,.91-.57,7.4,7.4,0,0,0,.67-.6A.2.2,0,0,0,377.93,87.11Zm11.48,1.48-4.11-9.66a.18.18,0,0,0-.18-.12h-1.76a.18.18,0,0,0-.18.12l-4.11,9.66a.17.17,0,0,0,0,.18.18.18,0,0,0,.16.08h1.81a.18.18,0,0,0,.18-.12l.81-2a.18.18,0,0,1,.18-.12h4a.18.18,0,0,1,.18.12l.81,2a.18.18,0,0,0,.18.12h1.87a.21.21,0,0,0,.17-.08A.19.19,0,0,0,389.41,88.59Zm-4.16-3.91h-2.08a.19.19,0,0,1-.17-.27l1-2.53a.19.19,0,0,1,.36,0l1,2.53a.19.19,0,0,1,0,.18A.18.18,0,0,1,385.25,84.68Z"/><path class="cls-3" d="M285,78.71H283a.2.2,0,0,0-.18.12l-2.38,6.42a.2.2,0,0,1-.36,0l-2.38-6.42a.2.2,0,0,0-.18-.12h-2a.18.18,0,0,0-.16.08.17.17,0,0,0,0,.18l3.88,9.66a.16.16,0,0,0,.17.12h1.68a.18.18,0,0,0,.18-.12L285.13,79a.23.23,0,0,0,0-.18.21.21,0,0,0-.16-.08m9.4,9.78V86.92a.2.2,0,0,0-.19-.19h-5a.19.19,0,0,1-.19-.19V84.83a.18.18,0,0,1,.19-.19h4.32a.2.2,0,0,0,.19-.2V82.88a.2.2,0,0,0-.19-.2h-4.32a.18.18,0,0,1-.19-.19V80.85a.19.19,0,0,1,.19-.19h5a.2.2,0,0,0,.19-.19V78.9a.2.2,0,0,0-.19-.19H287a.2.2,0,0,0-.19.19v9.59a.19.19,0,0,0,.19.19h7.2A.19.19,0,0,0,294.35,88.49Zm10.83,0V78.9a.2.2,0,0,0-.19-.19H303.2a.2.2,0,0,0-.19.19v5.38a.19.19,0,0,1-.13.18.19.19,0,0,1-.21-.06l-4.27-5.61a.19.19,0,0,0-.16-.08h-1.73a.19.19,0,0,0-.19.19v9.59a.18.18,0,0,0,.19.19h1.78a.18.18,0,0,0,.19-.19V82.91a.19.19,0,0,1,.13-.18.19.19,0,0,1,.22.07l4.42,5.81a.19.19,0,0,0,.16.07H305A.19.19,0,0,0,305.18,88.49Zm11.58-4.79v0a5,5,0,0,0-.38-2,4.71,4.71,0,0,0-1.09-1.58,5.07,5.07,0,0,0-1.69-1,5.9,5.9,0,0,0-2.14-.38h-3.7a.2.2,0,0,0-.19.19v9.59a.19.19,0,0,0,.19.19h3.7a5.9,5.9,0,0,0,2.14-.38,5.11,5.11,0,0,0,1.69-1.06,4.61,4.61,0,0,0,1.09-1.58A5.11,5.11,0,0,0,316.76,83.7Zm-2.29,0a3.3,3.3,0,0,1-.22,1.21,3,3,0,0,1-.62.95,2.64,2.64,0,0,1-.94.61,3.45,3.45,0,0,1-1.23.21H310a.18.18,0,0,1-.19-.19V80.88a.19.19,0,0,1,.19-.19h1.5a3.24,3.24,0,0,1,1.23.22,2.66,2.66,0,0,1,.94.62,3,3,0,0,1,.62,1,3.44,3.44,0,0,1,.22,1.22Zm11.82,4.77V86.92a.2.2,0,0,0-.19-.19h-5a.19.19,0,0,1-.19-.19V84.83a.18.18,0,0,1,.19-.19h4.32a.2.2,0,0,0,.19-.2V82.88a.2.2,0,0,0-.19-.2h-4.32a.18.18,0,0,1-.19-.19V80.85a.19.19,0,0,1,.19-.19h5a.2.2,0,0,0,.19-.19V78.9a.2.2,0,0,0-.19-.19H318.9a.2.2,0,0,0-.19.19v9.59a.19.19,0,0,0,.19.19h7.2A.19.19,0,0,0,326.29,88.49Z"/><path class="cls-3" d="M212.64,87.11,211.51,86a.21.21,0,0,0-.27,0,5.26,5.26,0,0,1-1,.74,3,3,0,0,1-1.44.31,2.71,2.71,0,0,1-1.18-.25,2.56,2.56,0,0,1-.91-.68,3.07,3.07,0,0,1-.59-1,3.51,3.51,0,0,1-.22-1.21v0a3.46,3.46,0,0,1,.22-1.21,3.13,3.13,0,0,1,.6-1,2.91,2.91,0,0,1,.91-.67,2.85,2.85,0,0,1,1.17-.24,3,3,0,0,1,1.36.3,5.42,5.42,0,0,1,1,.7.19.19,0,0,0,.27,0l1.15-1.32a.2.2,0,0,0,0-.27,4.92,4.92,0,0,0-.61-.5,4.05,4.05,0,0,0-.87-.48,5.07,5.07,0,0,0-1-.32,7.18,7.18,0,0,0-1.28-.11,5.19,5.19,0,0,0-2.11.41A5.06,5.06,0,0,0,205,80.23,5.3,5.3,0,0,0,204,81.86a5.36,5.36,0,0,0-.38,2v0a5.33,5.33,0,0,0,.38,2A5.07,5.07,0,0,0,205,87.53a4.81,4.81,0,0,0,1.63,1.09,5,5,0,0,0,2,.4A6.6,6.6,0,0,0,210,88.9a5.16,5.16,0,0,0,1.07-.35A5,5,0,0,0,212,88a7.31,7.31,0,0,0,.66-.6.18.18,0,0,0,0-.27m12-3.24v0a5.13,5.13,0,0,0-.39-2,4.84,4.84,0,0,0-1.1-1.63,5.2,5.2,0,0,0-1.67-1.09,5.71,5.71,0,0,0-4.25,0,5.13,5.13,0,0,0-1.68,1.11,5,5,0,0,0-1.51,3.64v0a5,5,0,0,0,.4,2,4.87,4.87,0,0,0,1.09,1.62,5.27,5.27,0,0,0,1.68,1.1,5.41,5.41,0,0,0,2.12.4,5.5,5.5,0,0,0,2.13-.4,5.07,5.07,0,0,0,2.78-2.75A5,5,0,0,0,224.68,83.87Zm-2.29,0a3.25,3.25,0,0,1-.22,1.21,3.35,3.35,0,0,1-.61,1,2.82,2.82,0,0,1-.95.67,3,3,0,0,1-1.21.24,2.86,2.86,0,0,1-1.22-.25,2.81,2.81,0,0,1-1-.68,2.84,2.84,0,0,1-.63-1,3.29,3.29,0,0,1-.22-1.21v0a3.25,3.25,0,0,1,.22-1.21,3.35,3.35,0,0,1,.61-1,3,3,0,0,1,3.37-.66,3,3,0,0,1,1,.68,3,3,0,0,1,.63,1,3.25,3.25,0,0,1,.22,1.21Zm14.22,4.77V79.07a.2.2,0,0,0-.19-.19h-2.07a.17.17,0,0,0-.16.09l-2.41,3.86a.18.18,0,0,1-.32,0L229.06,79a.2.2,0,0,0-.17-.09h-2.06a.19.19,0,0,0-.19.19v9.59a.18.18,0,0,0,.19.19h1.78a.19.19,0,0,0,.19-.19V83a.2.2,0,0,1,.14-.19.19.19,0,0,1,.21.08l2.43,3.68h.06l2.45-3.72a.19.19,0,0,1,.22-.08.18.18,0,0,1,.13.18v5.68a.19.19,0,0,0,.19.19h1.79A.19.19,0,0,0,236.61,88.66Zm10.28-6.3v0a3.58,3.58,0,0,0-.26-1.41,3.32,3.32,0,0,0-.75-1.09,3.55,3.55,0,0,0-1.2-.7,4.71,4.71,0,0,0-1.6-.25h-3.89a.2.2,0,0,0-.19.19v9.59a.19.19,0,0,0,.19.19H241a.19.19,0,0,0,.2-.19V86.05a.19.19,0,0,1,.19-.19h1.47a5.39,5.39,0,0,0,1.58-.22,3.88,3.88,0,0,0,1.28-.66,3.22,3.22,0,0,0,.86-1.1A3.47,3.47,0,0,0,246.89,82.36Zm-2.22,0a1.42,1.42,0,0,1-.45,1.07,1.82,1.82,0,0,1-1.29.44h-1.54a.19.19,0,0,1-.19-.19V81.05a.19.19,0,0,1,.19-.19h1.5a2,2,0,0,1,1.3.39,1.34,1.34,0,0,1,.48,1.12Zm12.26,6.15-2.09-3.06a.16.16,0,0,1,0-.16.2.2,0,0,1,.11-.13,3.37,3.37,0,0,0,1.33-1,3.14,3.14,0,0,0,.59-2v0a3.06,3.06,0,0,0-1-2.42,4.07,4.07,0,0,0-2.77-.87h-4.37a.19.19,0,0,0-.19.19v9.59a.18.18,0,0,0,.19.19h1.81a.18.18,0,0,0,.19-.19V85.85a.2.2,0,0,1,.19-.19h1.43a.17.17,0,0,1,.16.09l2,3a.18.18,0,0,0,.16.08h2.09a.19.19,0,0,0,.16-.3Zm-2.31-6.24a1.32,1.32,0,0,1-.44,1,1.8,1.8,0,0,1-1.25.38h-2a.19.19,0,0,1-.19-.19V81.05a.2.2,0,0,1,.19-.19h2a2,2,0,0,1,1.27.36,1.27,1.27,0,0,1,.46,1.07Zm13.8,6.28-4.11-9.66a.18.18,0,0,0-.18-.12h-1.77a.18.18,0,0,0-.17.12l-4.11,9.66a.19.19,0,0,0,0,.18.21.21,0,0,0,.16.08h1.82a.18.18,0,0,0,.18-.12l.81-2a.18.18,0,0,1,.18-.12h4a.18.18,0,0,1,.18.12l.81,2a.18.18,0,0,0,.18.12h1.87a.18.18,0,0,0,.16-.08A.17.17,0,0,0,268.42,88.59Zm-4.16-3.91h-2.08a.19.19,0,0,1-.16-.09.22.22,0,0,1,0-.18l1-2.53a.19.19,0,0,1,.36,0l1,2.53a.2.2,0,0,1-.18.27Z"/><path class="cls-3" d="M227.46,58.28A3.17,3.17,0,0,1,226,61.16a7.41,7.41,0,0,1-4,.93h-9.18V54.37h8.93a7.33,7.33,0,0,1,4.36,1,3.32,3.32,0,0,1,1.36,2.79Zm-2-14.05a3,3,0,0,1-1.5,2.83,8,8,0,0,1-4.07.88h-7.12V40.52h7.62a6.54,6.54,0,0,1,3.77.92,3.1,3.1,0,0,1,1.3,2.69Zm9.58,15v-.1a8,8,0,0,0-1.74-5.49,11.92,11.92,0,0,0-4.8-3.14,9.19,9.19,0,0,0,1.77-1.2,8.1,8.1,0,0,0,1.45-1.63,8.35,8.35,0,0,0,1.37-4.75v-.1a8,8,0,0,0-3.08-6.62c-2.06-1.64-4.88-2.46-8.49-2.46H205.28V68.87H222a22.52,22.52,0,0,0,5.39-.6,12.85,12.85,0,0,0,4.16-1.81,8.31,8.31,0,0,0,2.65-3A9.11,9.11,0,0,0,235.08,59.23Z"/><path class="cls-4" d="M244.26,55.38,248.62,51a.91.91,0,0,0,0-1.31l-4.4-4.4a.93.93,0,0,0-1.31,0l-4.37,4.37a.93.93,0,0,0,0,1.31l4.41,4.4a.93.93,0,0,0,1.31,0"/><path class="cls-3" d="M472,58.48v-.1a9.86,9.86,0,0,0-.72-4,8.13,8.13,0,0,0-2.17-2.89,13.31,13.31,0,0,0-3.52-2.11,36.84,36.84,0,0,0-4.76-1.58q-2.25-.6-3.75-1.05a11.82,11.82,0,0,1-2.34-.95,3.07,3.07,0,0,1-1.18-1.13,3.29,3.29,0,0,1-.32-1.48v-.1a2.67,2.67,0,0,1,1.13-2.19,5.48,5.48,0,0,1,3.38-.88,11.8,11.8,0,0,1,4.52.93,25.12,25.12,0,0,1,4.17,2.24.57.57,0,0,0,.76-.15l3.4-4.94a.55.55,0,0,0-.12-.76,20.42,20.42,0,0,0-5.53-3,20.94,20.94,0,0,0-7.1-1.15,15.64,15.64,0,0,0-5,.75A11.31,11.31,0,0,0,449,36.15a9.91,9.91,0,0,0-2.51,3.34,10.15,10.15,0,0,0-.9,4.34v.1a10.21,10.21,0,0,0,.83,4.36,8.1,8.1,0,0,0,2.34,2.94,13.29,13.29,0,0,0,3.67,2,43.88,43.88,0,0,0,4.84,1.46,36.72,36.72,0,0,1,3.59,1,12.22,12.22,0,0,1,2.17,1,2.81,2.81,0,0,1,1.05,1.08,3,3,0,0,1,.28,1.33v.1A2.79,2.79,0,0,1,463,61.67a6.83,6.83,0,0,1-3.74.87,13.22,13.22,0,0,1-5.55-1.15,22.41,22.41,0,0,1-4.52-2.78.56.56,0,0,0-.77.09l-3.87,4.63a.57.57,0,0,0,.06.78A20.77,20.77,0,0,0,451.26,68a23.27,23.27,0,0,0,7.88,1.38,17.4,17.4,0,0,0,5.21-.73,11.9,11.9,0,0,0,4-2.11A9.56,9.56,0,0,0,471,63.12a10.86,10.86,0,0,0,.94-4.64M433,45.84a4.6,4.6,0,0,1-1.53,3.61,6.42,6.42,0,0,1-4.39,1.35h-7.27a.56.56,0,0,1-.56-.55v-9a.56.56,0,0,1,.56-.55H427A7.14,7.14,0,0,1,431.44,42a4.48,4.48,0,0,1,1.6,3.76ZM441.33,68l-7.6-11.11a.56.56,0,0,1,.24-.82,12,12,0,0,0,4.82-3.69,11,11,0,0,0,2.08-7v-.1a10.75,10.75,0,0,0-3.49-8.53q-3.48-3.06-9.76-3.06h-15.5a.55.55,0,0,0-.55.56v34a.55.55,0,0,0,.55.56h6.62a.56.56,0,0,0,.55-.56V58.18a.56.56,0,0,1,.56-.55h5.22a.54.54,0,0,1,.46.24l7.2,10.75a.53.53,0,0,0,.46.25h7.68a.54.54,0,0,0,.49-.3A.53.53,0,0,0,441.33,68ZM397.86,51.41a11.53,11.53,0,0,1-.78,4.24,10.88,10.88,0,0,1-2.15,3.48,9.74,9.74,0,0,1-3.34,2.36,10.54,10.54,0,0,1-4.27.85,10.34,10.34,0,0,1-4.29-.87,10.84,10.84,0,0,1-3.36-2.39,10.62,10.62,0,0,1-2.21-3.51,11.89,11.89,0,0,1-.77-4.27v-.1a11.73,11.73,0,0,1,.77-4.24,11.09,11.09,0,0,1,2.16-3.48,9.82,9.82,0,0,1,3.31-2.36,10.5,10.5,0,0,1,4.29-.85,10.38,10.38,0,0,1,4.27.87,10.74,10.74,0,0,1,3.39,2.39,10.44,10.44,0,0,1,2.2,3.51,11.67,11.67,0,0,1,.78,4.26Zm8.08-.11v-.1a18.09,18.09,0,0,0-1.38-7.05,17.46,17.46,0,0,0-3.86-5.72,18.57,18.57,0,0,0-5.9-3.86,19.21,19.21,0,0,0-7.48-1.43,19.42,19.42,0,0,0-7.5,1.43,18.19,18.19,0,0,0-5.92,3.91A18.41,18.41,0,0,0,370,44.25a17.92,17.92,0,0,0-1.4,7v.11A18.09,18.09,0,0,0,370,58.46a17.46,17.46,0,0,0,3.86,5.72,18.57,18.57,0,0,0,5.9,3.86,19.16,19.16,0,0,0,7.47,1.43A19.47,19.47,0,0,0,394.73,68a17.93,17.93,0,0,0,9.81-9.69A17.85,17.85,0,0,0,405.94,51.3Zm-40.45-11,2.07-6c.1-.29-.25-.56-.56-.56H339c-.31,0-.46.27-.56.56l-2.06,6c-.1.29.25.56.55.56h9.58a.56.56,0,0,1,.56.55V68.31a.56.56,0,0,0,.55.56h6.62a.56.56,0,0,0,.56-.56V41.42a.55.55,0,0,1,.55-.55h9.58C365.24,40.87,365.39,40.6,365.49,40.31ZM325.2,51.41a11.53,11.53,0,0,1-.78,4.24,11.09,11.09,0,0,1-2.16,3.48,9.65,9.65,0,0,1-3.34,2.36,10.49,10.49,0,0,1-4.26.85,10.34,10.34,0,0,1-4.29-.87A10.61,10.61,0,0,1,307,59.08a10.46,10.46,0,0,1-2.21-3.51A11.69,11.69,0,0,1,304,51.3v-.1A11.53,11.53,0,0,1,304.8,47,11.09,11.09,0,0,1,307,43.48a9.72,9.72,0,0,1,3.31-2.36,10.5,10.5,0,0,1,4.29-.85,10.34,10.34,0,0,1,4.26.87,10.52,10.52,0,0,1,3.39,2.39A10.62,10.62,0,0,1,324.42,47a11.67,11.67,0,0,1,.78,4.26Zm8.07-.11v-.1a18.09,18.09,0,0,0-1.38-7.05A17.3,17.3,0,0,0,328,38.43a18.57,18.57,0,0,0-5.9-3.86,19.16,19.16,0,0,0-7.47-1.43,19.38,19.38,0,0,0-7.5,1.43,18,18,0,0,0-9.81,9.68,17.75,17.75,0,0,0-1.41,7v.11a18.09,18.09,0,0,0,1.38,7.05,17.46,17.46,0,0,0,3.86,5.72,18.68,18.68,0,0,0,5.9,3.86,20.33,20.33,0,0,0,15,0,17.93,17.93,0,0,0,9.81-9.69A17.68,17.68,0,0,0,333.27,51.3Zm-42.95,17v-34a.56.56,0,0,0-.56-.56H282.3a.58.58,0,0,0-.48.26l-8.59,13.84a.56.56,0,0,1-1,0L263.68,34a.55.55,0,0,0-.47-.26h-7.46a.56.56,0,0,0-.56.56v34a.56.56,0,0,0,.56.56h6.51a.56.56,0,0,0,.56-.56V47.94a.55.55,0,0,1,.4-.53.53.53,0,0,1,.62.22l8.76,13.31h.2l8.87-13.46a.53.53,0,0,1,.62-.22.55.55,0,0,1,.4.53V68.31a.56.56,0,0,0,.56.56h6.51A.56.56,0,0,0,290.32,68.31Z"/><path class="cls-4" d="M271.78,85.49l1.34-1.35a.28.28,0,0,0,0-.4l-1.35-1.36a.3.3,0,0,0-.41,0L270,83.73a.28.28,0,0,0,0,.4l1.35,1.36a.3.3,0,0,0,.41,0"/><path class="cls-4" d="M332.14,85.49l1.35-1.35a.28.28,0,0,0,0-.4l-1.36-1.36a.28.28,0,0,0-.4,0l-1.35,1.35a.28.28,0,0,0,0,.4l1.36,1.36a.28.28,0,0,0,.4,0"/><path class="cls-4" d="M393.68,85.49,395,84.14a.28.28,0,0,0,0-.4l-1.36-1.36a.28.28,0,0,0-.4,0l-1.35,1.35a.28.28,0,0,0,0,.4l1.36,1.36a.28.28,0,0,0,.4,0"/></svg>